<?xml version="1.0" standalone="yes"?>
<svg xmlns="http://www.w3.org/2000/svg" width="1300" height="1300">
<!-- <path style="fill:#010101; stroke:none;" d="M0 0L0 565L1 565C1 502.436 18.7105 436.722 41.8002 379C109.085 210.794 252.067 77.4631 426 25.28C470.365 11.9698 518.475 1 565 1C552.355 -4.30615 529.776 0 516 0L400 0L0 0z"/> -->
<path style="fill:#2175e7; stroke:none;" d="M327 728L328 728C322.737 709.724 313.77 692.604 308.884 674C301.112 644.403 299.642 614.426 300.004 584C301.497 458.492 399.267 346.878 516 311.72C584.972 290.947 662.771 300 734 300L1120 300C1112.85 283.416 1100.89 267.643 1090.42 253C1066.83 219.987 1040.29 189.952 1011 161.961C814.417 -25.9379 497.155 -53.4368 271 97.3334C213.455 135.696 163.524 182.177 121.349 237C110.723 250.813 100.791 265.207 91.5764 280C88.2891 285.278 82.4925 291.838 81.2184 298C79.5834 305.906 92.5311 321.214 96.4213 328C111.924 355.042 127.697 381.929 143.15 409C182.258 477.506 221.828 545.775 261.424 614C283.175 651.476 308.677 688.754 327 728z"/>
<!-- <path style="fill:#010101; stroke:none;" d="M635 0L635 1C694.903 1 757.31 17.5708 813 38.5764C984.669 103.328 1120.18 248.869 1174.02 424C1187.94 469.256 1199 518.469 1199 566L1200 566L1200 0L635 0z"/> -->
<path style="fill:#508ef5; stroke:none;" d="M79 300C69.0251 323.832 54.9314 345.957 45.0108 370C23.7368 421.559 9.92836 475.636 3.28549 531C-25.0925 767.513 96.1371 1004.68 303 1122.28C371.821 1161.4 449.134 1187.72 528 1196.17C545.638 1198.05 563.246 1200 581 1200C586.258 1200 594.784 1201.63 599.621 1199.4C607.269 1195.87 613.865 1177.19 618 1170C633.913 1142.31 650.019 1114.73 665.85 1087C707.048 1014.82 748.707 942.88 790.424 871C810.083 837.127 834.509 802.948 850 767L849 767C832.097 792.052 811.62 814.654 788 833.551C683.367 917.26 536.767 920.765 427 844.975C399.832 826.216 375.604 801.834 356.427 775C349.569 765.402 342.934 755.377 337.309 745C334.641 740.08 332.792 733.139 328 730L329 728C318.516 717.834 312.265 700.536 304.799 688C286.294 656.927 268.73 625.28 250.576 594C193.939 496.414 133.577 399.82 81 300L79 300M577 300L577 301L582 301L577 300z"/>
<path style="fill:#b7d1fb; stroke:none;" d="M849 767L850 767C791.813 862.073 738.021 960.294 682.579 1057C664.787 1088.03 647.105 1119.16 628.989 1150C619.845 1165.57 606.443 1182.8 601 1200C669.04 1200 736.732 1189.2 801 1166.31C1037.66 1082.01 1200 852.915 1200 602C1200 522.415 1185.47 444.874 1155.4 371C1148.05 352.965 1139.99 334.972 1130.42 318C1127.65 313.071 1125.15 304.329 1120.37 301.028C1116.26 298.195 1106.81 300 1102 300L1054 300L873 300L690 300C645.047 300 598.506 296.522 554 303.424C468.96 316.613 390.118 367.051 345.203 441C330.26 465.602 317.828 492.039 310.63 520C301.451 555.65 297.672 592.292 301.17 629C305.067 669.895 317.753 709.927 337.309 746C416.033 891.214 607.089 941.815 749 860.85C777.074 844.832 802.796 824.263 824.155 800C833.027 789.923 843.212 779.236 849 767z"/>
<path style="fill:#508ef5; stroke:none;" d="M566 301L566 302L569 302L566 301M558 302L558 303L561 303L558 302M552.667 303.333L553.333 303.667L552.667 303.333M546.667 304.333L547.333 304.667L546.667 304.333M541.667 305.333L542.333 305.667L541.667 305.333M536 306L537 307L536 306M531.667 307.333L532.333 307.667L531.667 307.333M527.667 308.333L528.333 308.667L527.667 308.333M523.667 309.333L524.333 309.667L523.667 309.333M520 310L521 311L520 310M516 311L517 312L516 311M513 312L514 313L513 312M510 313L511 314L510 313M507 314L508 315L507 314M503 315L504 316L503 315M501 316L502 317L501 316M498 317L499 318L498 317z"/>
<path style="fill:#01ffff; stroke:none;" d="M69 318L70 319L69 318z"/>
<path style="fill:#508ef5; stroke:none;" d="M495 318L496 319L495 318M492 319L493 320L492 319M490 320L491 321L490 320M487 321L488 322L487 321M485 322L486 323L485 322M482 323L483 324L482 323M480 324L481 325L480 324M478 325L479 326L478 325M471 328L472 329L471 328M469 329L470 330L469 329M467 330L468 331L467 330M465 331L466 332L465 331M463 332L464 333L463 332M461 333L462 334L461 333M454 337L455 338L454 337M452 338L453 339L452 338M450 339L451 340L450 339M447 341L448 342L447 341M445 342L446 343L445 342M442 344L443 345L442 344M440 345L441 346L440 345M437 347L438 348L437 347M434 349L435 350L434 349M431 351L432 352L431 351M428 353L429 354L428 353M424 356L425 357L424 356M592 356L592 357L608 357L592 356M576 357L576 358L581 358L576 357z"/>
<path style="fill:#2175e7; stroke:none;" d="M581 357.424C533.648 363.645 490.515 377.238 452 406.654C427.036 425.721 405.748 449.921 389.861 477C326.812 584.467 357.743 726.21 459 798.573C484.275 816.635 512.912 829.201 543 836.626C570.751 843.474 600.631 845.153 629 841.714C665.456 837.296 701.209 824.756 732 804.656C844.088 731.487 878.516 574.046 801.279 463C786.274 441.426 768.068 421.698 747 405.895C722.964 387.867 695.901 374.334 667 366.14C639.957 358.474 609.128 353.729 581 357.424z"/>
<path style="fill:#508ef5; stroke:none;" d="M619 357L619 358L624 358L619 357M421 358L422 359L421 358M568 358L568 359L571 359L568 358M629 358L629 359L632 359L629 358M420 359L421 360L420 359M561.667 359.333L562.333 359.667L561.667 359.333M637.667 359.333L638.333 359.667L637.667 359.333M555.667 360.333L556.333 360.667L555.667 360.333M643.667 360.333L644.333 360.667L643.667 360.333M417 361L418 362L417 361M550.667 361.333L551.333 361.667L550.667 361.333M648.667 361.333L649.333 361.667L648.667 361.333M416 362L417 363L416 362M545.667 362.333L546.333 362.667L545.667 362.333M653.667 362.333L654.333 362.667L653.667 362.333M541.667 363.333L542.333 363.667L541.667 363.333M657.667 363.333L658.333 363.667L657.667 363.333z"/>
<path style="fill:#01ffff; stroke:none;" d="M47 364L48 365L47 364z"/>
<path style="fill:#508ef5; stroke:none;" d="M538 364L539 365L538 364M661.667 364.333L662.333 364.667L661.667 364.333M412 365L413 366L412 365M534.667 365.333L535.333 365.667L534.667 365.333M664.667 365.333L665.333 365.667L664.667 365.333M411 366L412 367L411 366M530.667 366.333L531.333 366.667L530.667 366.333M668.667 366.333L669.333 366.667L668.667 366.333M527 367L528 368L527 367M671.667 367.333L672.333 367.667L671.667 367.333M524 368L525 369L524 368M675 368L676 369L675 368M407 369L408 370L407 369M521 369L522 370L521 369M677.667 369.333L678.333 369.667L677.667 369.333M406 370L407 371L406 370M518.667 370.333L519.333 370.667L518.667 370.333M680.667 370.333L681.333 370.667L680.667 370.333M405 371L406 372L405 371M515.667 371.333L516.333 371.667L515.667 371.333M683.667 371.333L684.333 371.667L683.667 371.333M513 372L514 373L513 372M686 372L687 373L686 372M510 373L511 374L510 373M689 373L690 374L689 373M508 374L509 375L508 374M691 374L692 375L691 374M505 375L506 376L505 375M694 375L695 376L694 375M399 376L400 377L399 376M503 376L504 377L503 376M696 376L697 377L696 376M398 377L399 378L398 377M501 377L502 378L501 377M698 377L699 378L698 377M397 378L398 379L397 378M499 378L500 379L499 378M700.667 378.333L701.333 378.667L700.667 378.333M396 379L397 380L396 379M496 379L497 380L496 379M703 379L704 380L703 379M494 380L495 381L494 380M705 380L706 381L705 380M492 381L493 382L492 381M707 381L708 382L707 381M490 382L491 383L490 382M709 382L710 383L709 382M488 383L489 384L488 383M711 383L712 384L711 383M486 384L487 385L486 384M713 384L714 385L713 384M484 385L485 386L484 385M715 385L716 386L715 385M716 386L717 387L716 386M481 387L482 388L481 387M718 387L719 388L718 387M479 388L480 389L479 388M720 388L721 389L720 388M477 389L478 390L477 389M722 389L723 390L722 389M476 390L477 391L476 390M723 390L724 391L723 390M474 391L475 392L474 391M725 391L726 392L725 391M472 392L473 393L472 392M727 392L728 393L727 392M471 393L472 394L471 393M728 393L729 394L728 393M469 394L470 395L469 394M730 394L731 395L730 394M731 395L732 396L731 395M379 396L380 397L379 396M466 396L467 397L466 396M733 396L734 397L733 396M378 397L379 398L378 397M464 397L465 398L464 397M377 398L378 399L377 398M463 398L464 399L463 398M736 398L737 399L736 398M376 399L377 400L376 399M375 400L376 401L375 400M460 400L461 401L460 400M739 400L740 401L739 400M459 401L460 402L459 401M740 401L741 402L740 401M457 402L458 403L457 402M742 402L743 403L742 402M456 403L457 404L456 403M743 403L744 404L743 403M371 405L372 406L371 405M453 405L454 406L453 405M746 405L747 406L746 405M370 406L371 407L370 406M452 406L453 407L452 406M747 406L748 407L747 406M369 407L370 408L369 407M449 408L450 409L449 408M750 408L751 409L750 408M448 409L449 410L448 409M751 409L752 410L751 409M447 410L448 411L447 410M752 410L753 411L752 410M366 411L367 412L366 411M365 412L366 413L365 412M444 412L445 413L444 412M755 412L756 413L755 412M443 413L444 414L443 413M756 413L757 414L756 413M442 414L443 415L442 414M757 414L758 415L757 414M441 415L442 416L441 415M758 415L759 416L758 415M362 416L363 417L362 416M440 416L441 417L440 416M759 416L760 417L759 416M361 417L362 418L361 417M437 418L438 419L437 418M762 418L763 419L762 418M436 419L437 420L436 419M763 419L764 420L763 419M359 420L360 421L359 420M435 420L436 421L435 420M764 420L765 421L764 420z"/>
<path style="fill:#01ffff; stroke:none;" d="M26 421L27 422L26 421z"/>
<path style="fill:#508ef5; stroke:none;" d="M358 421L359 422L358 421M434 421L435 422L434 421M765 421L766 422L765 421M433 422L434 423L433 422M766 422L767 423L766 422M432 423L433 424L432 423M767 423L768 424L767 423M356 424L357 425L356 424M431 424L432 425L431 424M768 424L769 425L768 424M430 425L431 426L430 425M769 425L770 426L769 425M429 426L430 427L429 426M770 426L771 427L770 426M428 427L429 428L428 427M771 427L772 428L771 427M353 428L354 429L353 428M427 428L428 429L427 428M772 428L773 429L772 428M426 429L427 430L426 429M773 429L774 430L773 429M425 430L426 431L425 430M774 430L775 431L774 430M351 431L352 432L351 431M424 431L425 432L424 431M775 431L776 432L775 431M423 432L424 433L423 432M776 432L777 433L776 432M422 433L423 434L422 433M777 433L778 434L777 433M349 434L350 435L349 434M421 434L422 435L421 434M778 434L779 435L778 434M420 435L421 436L420 435M779 435L780 436L779 435M419 436L420 437L419 436M780 436L781 437L780 436M347 437L348 438L347 437M418 437L419 438L418 437M781 437L782 438L781 437M345 440L346 441L345 440M783 440L784 441L783 440M415 441L416 442L415 441M784 441L785 442L784 441M344 442L345 443L344 442M414 442L415 443L414 442M785 442L786 443L785 442M413 443L414 444L413 443M786 443L787 444L786 443M412 444L413 445L412 444M787 444L788 445L787 444M342 445L343 446L342 445M341 447L342 448L341 447M410 447L411 448L410 447M789 447L790 448L789 447M409 448L410 449L409 448M790 448L791 449L790 448M408 449L409 450L408 449M791 449L792 450L791 449M339 450L340 451L339 450M338 452L339 453L338 452M406 452L407 453L406 452M793 452L794 453L793 452z"/>
<path style="fill:#01ffff; stroke:none;" d="M17 453L18 454L17 453z"/>
<path style="fill:#508ef5; stroke:none;" d="M405 453L406 454L405 453M794 453L795 454L794 453M337 454L338 455L337 454M403 456L404 457L403 456M796 456L797 457L796 456M402 457L403 458L402 457M797 457L798 458L797 457M334 459L335 460L334 459M401 459L402 460L401 459M798 459L799 460L798 459M400 460L401 461L400 460M799 460L800 461L799 460M333 461L334 462L333 461M332 463L333 464L332 463M398 463L399 464L398 463M801 463L802 464L801 463M397 464L398 465L397 464M331 465L332 466L331 465M396 466L397 467L396 466M803 466L804 467L803 466M330 467L331 468L330 467M329 469L330 470L329 469M394 469L395 470L394 469M805 469L806 470L805 469M328 471L329 472L328 471M393 471L394 472L393 471M806 471L807 472L806 471M392 472L393 473L392 472M807 472L808 473L807 472M391 474L392 475L391 474M808 474L809 475L808 474M389 477L390 478L389 477M810 477L811 478L810 477M325 478L326 479L325 478M388 479L389 480L388 479M811 479L812 480L811 479M324 480L325 481L324 480M387 481L388 482L387 481M812 481L813 482L812 481M385 484L386 485L385 484M814 484L815 485L814 484M322 485L323 486L322 485M384 486L385 487L384 486M815 486L816 487L815 486M321 487L322 488L321 487M383 488L384 489L383 488M816 488L817 489L816 488M320 490L321 491L320 490M382 490L383 491L382 490M817 490L818 491L817 490M319 492L320 493L319 492M381 492L382 493L381 492M818 492L819 493L818 492M380 494L381 495L380 494M819 494L820 495L819 494M318 495L319 496L318 495M379 496L380 497L379 496M820 496L821 497L820 496M317 498L318 499L317 498M378 498L379 499L378 498M821 499L822 500L821 499M377 501L378 502L377 501M822 501L823 502L822 501M315 503L316 504L315 503M376 503L377 504L376 503M823 503L824 504L823 503M375 505L376 506L375 505M824 505L825 506L824 505M314 506L315 507L314 506M374 508L375 509L374 508M825 508L826 509L825 508M313 510L314 511L313 510M373 510L374 511L373 510M826 510L827 511L826 510M312 513L313 514L312 513M372 513L373 514L372 513M827 513L828 514L827 513M371 515L372 516L371 515M828 515L829 516L828 515M311 516L312 517L311 516M370 518L371 519L370 518M829 518L830 519L829 518M310 520L311 521L310 520M369 521L370 522L369 521M830 521L831 522L830 521M309.333 523.667L309.667 524.333L309.333 523.667M368 524L369 525L368 524M831 524L832 525L831 524M308.333 527.667L308.667 528.333L308.333 527.667M367 527L368 528L367 527M832 527L833 528L832 527M366.333 530.667L366.667 531.333L366.333 530.667M833.333 530.667L833.667 531.333L833.333 530.667M307.333 531.667L307.667 532.333L307.333 531.667M365 534L366 535L365 534M834 534L835 535L834 534M306 536L307 537L306 536M364.333 537.667L364.667 538.333L364.333 537.667M835.333 537.667L835.667 538.333L835.333 537.667z"/>
<path style="fill:#01ffff; stroke:none;" d="M2 539L3 540L2 539z"/>
<path style="fill:#508ef5; stroke:none;" d="M305 541L306 542L305 541M363.333 541.667L363.667 542.333L363.333 541.667M836.333 541.667L836.667 542.333L836.333 541.667M362.333 545.667L362.667 546.333L362.333 545.667M304.333 546.667L304.667 547.333L304.333 546.667M837 546L838 547L837 546M361.333 550.667L361.667 551.333L361.333 550.667M838.333 550.667L838.667 551.333L838.333 550.667M303.333 552.667L303.667 553.333L303.333 552.667M360.333 555.667L360.667 556.333L360.333 555.667M839.333 555.667L839.667 556.333L839.333 555.667M302 558L302 561L303 561L302 558M359.333 561.667L359.667 562.333L359.333 561.667M840.333 561.667L840.667 562.333L840.333 561.667M301 566L301 569L302 569L301 566M358 567L358 570L359 570L358 567M841 568L841 571L842 571L841 568M357 576L357 580L358 580L357 576M300 577L300 582L301 582L300 577M842 577L842 581L843 581L842 577M356 591L356 609L357 609L356 591M843 593L843 607L844 607L843 593M300 618L300 623L301 623L300 618M842 619L842 623L843 623L842 619M357 620L357 624L358 624L357 620M841 629L841 632L842 632L841 629M358 630L358 633L359 633L358 630M301.333 631.667L301.667 632.333L301.333 631.667z"/>
<path style="fill:#01ffff; stroke:none;" d="M0 634L1 635L0 634z"/>
<!-- <path style="fill:#010101; stroke:none;" d="M1199 634C1199 694.257 1182.56 756.96 1161.42 813C1096.52 985.085 950.181 1121.86 774 1174.72C729.282 1188.14 680.883 1199 634 1199L634 1200L1200 1200L1200 799L1200 683C1200 669.224 1204.31 646.645 1199 634M0 635L0 1200L566 1200L566 1199C519.125 1199 470.715 1188.14 426 1174.72C264.448 1126.25 125.772 1006.46 55.3086 853C34.3458 807.346 18.8648 759.387 9.61111 710C6.38089 692.76 4.34409 675.39 2.28549 658C1.44728 650.919 2.73059 641.507 0 635z"/> -->
<path style="fill:#508ef5; stroke:none;" d="M359.333 637.667L359.667 638.333L359.333 637.667M840.333 637.667L840.667 638.333L840.333 637.667M302 639L302 642L303 642L302 639M360.333 643.667L360.667 644.333L360.333 643.667M839.333 643.667L839.667 644.333L839.333 643.667M303.333 646.667L303.667 647.333L303.333 646.667M361.333 648.667L361.667 649.333L361.333 648.667M838.333 648.667L838.667 649.333L838.333 648.667M304.333 652.667L304.667 653.333L304.333 652.667M362.333 653.667L362.667 654.333L362.333 653.667M837 653L838 654L837 653M363.333 657.667L363.667 658.333L363.333 657.667M836.333 657.667L836.667 658.333L836.333 657.667M305 658L306 659L305 658M364.333 661.667L364.667 662.333L364.333 661.667M835.333 661.667L835.667 662.333L835.333 661.667M306 663L307 664L306 663M365 665L366 666L365 665M834 665L835 666L834 665M307.333 667.667L307.667 668.333L307.333 667.667M366.333 668.667L366.667 669.333L366.333 668.667M833.333 668.667L833.667 669.333L833.333 668.667z"/>
<path style="fill:#01ffff; stroke:none;" d="M3 669L4 670L3 669z"/>
<path style="fill:#508ef5; stroke:none;" d="M308.333 671.667L308.667 672.333L308.333 671.667M367 672L368 673L367 672M832 672L833 673L832 672M309.333 675.667L309.667 676.333L309.333 675.667M368 675L369 676L368 675M831 675L832 676L831 675M369 678L370 679L369 678M830 678L831 679L830 678M310 679L311 680L310 679M370 681L371 682L370 681M829 681L830 682L829 681M311 683L312 684L311 683M371 684L372 685L371 684M828 684L829 685L828 684M312 686L313 687L312 686M372 686L373 687L372 686M827 686L828 687L827 686M313 689L314 690L313 689M373 689L374 690L373 689M826 689L827 690L826 689M374 691L375 692L374 691M825 691L826 692L825 691M314 692L315 693L314 692M375 694L376 695L375 694M824 694L825 695L824 694M315 696L316 697L315 696M376 696L377 697L376 696M823 696L824 697L823 696M316 698L317 699L316 698M377 698L378 699L377 698M822 698L823 699L822 698M317 701L318 702L317 701M378 701L379 702L378 701M379 703L380 704L379 703M820 703L821 704L820 703M318 704L319 705L318 704M380 705L381 706L380 705M819 705L820 706L819 705M319 707L320 708L319 707M381 707L382 708L381 707M818 707L819 708L818 707M320 709L321 710L320 709M382 709L383 710L382 709M817 709L818 710L817 709M383 711L384 712L383 711M816 711L817 712L816 711M321 712L322 713L321 712M384 713L385 714L384 713M815 713L816 714L815 713M322 714L323 715L322 714M385 715L386 716L385 715M814 715L815 716L814 715M387 718L388 719L387 718M812 718L813 719L812 718M324 719L325 720L324 719M388 720L389 721L388 720M811 720L812 721L811 720M325 721L326 722L325 721M389 722L390 723L389 722M810 722L811 723L810 722M391 725L392 726L391 725M808 725L809 726L808 725M392 727L393 728L392 727M807 727L808 728L807 727z"/>
<path style="fill:#01ffff; stroke:none;" d="M13 729L14 730L13 729z"/>
<path style="fill:#2175e7; stroke:none;" d="M328 729L329 730L328 729z"/>
<path style="fill:#508ef5; stroke:none;" d="M394 730L395 731L394 730M805 730L806 731L805 730M396 733L397 734L396 733M803 733L804 734L803 733M397 735L398 736L397 735M398 736L399 737L398 736M801 736L802 737L801 736M400 739L401 740L400 739M799 739L800 740L799 739z"/>
<path style="fill:#01ffff; stroke:none;" d="M16 742L17 743L16 742z"/>
<path style="fill:#508ef5; stroke:none;" d="M402 742L403 743L402 742M797 742L798 743L797 742M403 743L404 744L403 743M796 743L797 744L796 743M405 746L406 747L405 746M794 746L795 747L794 746M406 747L407 748L406 747M793 747L794 748L793 747M408 750L409 751L408 750M791 750L792 751L791 750M409 751L410 752L409 751M790 751L791 752L790 751M410 752L411 753L410 752M789 752L790 753L789 752M412 755L413 756L412 755M787 755L788 756L787 755M413 756L414 757L413 756M786 756L787 757L786 756M414 757L415 758L414 757M785 757L786 758L785 757M415 758L416 759L415 758M784 758L785 759L784 758M418 762L419 763L418 762M781 762L782 763L781 762M419 763L420 764L419 763M780 763L781 764L780 763M420 764L421 765L420 764M779 764L780 765L779 764M851 764L850 766L851 764M421 765L422 766L421 765M778 765L779 766L778 765M422 766L423 767L422 766M777 766L778 767L777 766M423 767L424 768L423 767M776 767L777 768L776 767M424 768L425 769L424 768M775 768L776 769L775 768M425 769L426 770L425 769M774 769L775 770L774 769M426 770L427 771L426 770M773 770L774 771L773 770M429 773L430 774L429 773M770 773L771 774L770 773M430 774L431 775L430 774M769 774L770 775L769 774M431 775L432 776L431 775M768 775L769 776L768 775M432 776L433 777L432 776M767 776L768 777L767 776M433 777L434 778L433 777M766 777L767 778L766 777M434 778L435 779L434 778M765 778L766 779L765 778M435 779L436 780L435 779M764 779L765 780L764 779M436 780L437 781L436 780M763 780L764 781L763 780M437 781L438 782L437 781M762 781L763 782L762 781M441 784L442 785L441 784M758 784L759 785L758 784M442 785L443 786L442 785M757 785L758 786L757 785M443 786L444 787L443 786M756 786L757 787L756 786M444 787L445 788L444 787M755 787L756 788L755 787M447 789L448 790L447 789M752 789L753 790L752 789M448 790L449 791L448 790M751 790L752 791L751 790M449 791L450 792L449 791M750 791L751 792L750 791M452 793L453 794L452 793M747 793L748 794L747 793M453 794L454 795L453 794M746 794L747 795L746 794M456 796L457 797L456 796M743 796L744 797L743 796M457 797L458 798L457 797M742 797L743 798L742 797M460 799L461 800L460 799M739 799L740 800L739 799M463 801L464 802L463 801M736 801L737 802L736 801M464 802L465 803L464 802M466 803L467 804L466 803M733 803L734 804L733 803M469 805L470 806L469 805M730 805L731 806L730 805M472 807L473 808L472 807M727 807L728 808L727 807M474 808L475 809L474 808M725 808L726 809L725 808M477 810L478 811L477 810M722 810L723 811L722 810M479 811L480 812L479 811M720 811L721 812L720 811M481 812L482 813L481 812M718 812L719 813L718 812M484 814L485 815L484 814M715 814L716 815L715 814M486 815L487 816L486 815M713 815L714 816L713 815M488 816L489 817L488 816M711 816L712 817L711 816M490 817L491 818L490 817M709 817L710 818L709 817M492 818L493 819L492 818M707 818L708 819L707 818M494 819L495 820L494 819M705 819L706 820L705 819M496 820L497 821L496 820M703 820L704 821L703 820M701 821L702 822L701 821M501 822L502 823L501 822M698 822L699 823L698 822M503 823L504 824L503 823M696 823L697 824L696 823M505 824L506 825L505 824M694 824L695 825L694 824M508 825L509 826L508 825M691 825L692 826L691 825M510 826L511 827L510 826M689 826L690 827L689 826M513 827L514 828L513 827M686 827L687 828L686 827M515 828L516 829L515 828M684 828L685 829L684 828M1155 828L1156 829L1155 828M518 829L519 830L518 829M681 829L682 830L681 829M521 830L522 831L521 830M678 830L679 831L678 830M524 831L525 832L524 831M675 831L676 832L675 831M527 832L528 833L527 832M672 832L673 833L672 832z"/>
<path style="fill:#01ffff; stroke:none;" d="M46 833L47 834L46 833z"/>
<path style="fill:#508ef5; stroke:none;" d="M530 833L531 834L530 833M669 833L670 834L669 833M534 834L535 835L534 834M665 834L666 835L665 834M537.667 835.333L538.333 835.667L537.667 835.333M661.667 835.333L662.333 835.667L661.667 835.333M541.667 836.333L542.333 836.667L541.667 836.333M657.667 836.333L658.333 836.667L657.667 836.333M545.667 837.333L546.333 837.667L545.667 837.333M653.667 837.333L654.333 837.667L653.667 837.333M550.667 838.333L551.333 838.667L550.667 838.333M648.667 838.333L649.333 838.667L648.667 838.333M555.667 839.333L556.333 839.667L555.667 839.333M643.667 839.333L644.333 839.667L643.667 839.333M561.667 840.333L562.333 840.667L561.667 840.333M637.667 840.333L638.333 840.667L637.667 840.333M568.667 841.333L569.333 841.667L568.667 841.333M630.667 841.333L631.333 841.667L630.667 841.333M576 842L576 843L580 843L576 842M620 842L620 843L624 843L620 842M592 843L592 844L608 844L592 843z"/>
<path style="fill:#01ffff; stroke:none;" d="M54 851L55 852L54 851M89 916L90 917L89 916M94 924L95 925L94 924z"/>
<path style="fill:#508ef5; stroke:none;" d="M1099 933L1100 934L1099 933M1097 936L1098 937L1097 936z"/>
<path style="fill:#01ffff; stroke:none;" d="M104 939L105 940L104 939M111 949L112 950L111 949z"/>
<path style="fill:#508ef5; stroke:none;" d="M1060 985L1061 986L1060 985z"/>
<path style="fill:#01ffff; stroke:none;" d="M144 991L145 992L144 991z"/>
<path style="fill:#508ef5; stroke:none;" d="M1047 1000L1048 1001L1047 1000M1014 1034L1015 1035L1014 1034z"/>
<path style="fill:#01ffff; stroke:none;" d="M187 1036L188 1037L187 1036z"/>
<path style="fill:#508ef5; stroke:none;" d="M1000 1047L1001 1048L1000 1047M985 1060L986 1061L985 1060z"/>
<path style="fill:#01ffff; stroke:none;" d="M220 1065L221 1066L220 1065z"/>
<path style="fill:#508ef5; stroke:none;" d="M974 1069L975 1070L974 1069z"/>
<path style="fill:#01ffff; stroke:none;" d="M230 1073L231 1074L230 1073z"/>
<path style="fill:#508ef5; stroke:none;" d="M961 1079L962 1080L961 1079M957 1082L958 1083L957 1082M953 1085L954 1086L953 1085M946 1090L947 1091L946 1090M936 1097L937 1098L936 1097M933 1099L934 1100L933 1099z"/>
<path style="fill:#01ffff; stroke:none;" d="M269 1101L270 1102L269 1101M272 1103L273 1104L272 1103z"/>
<path style="fill:#508ef5; stroke:none;" d="M919 1108L920 1109L919 1108z"/>
<path style="fill:#01ffff; stroke:none;" d="M298 1119L299 1120L298 1119M305 1123L306 1124L305 1123M314 1128L315 1129L314 1128z"/>
<path style="fill:#508ef5; stroke:none;" d="M810 1162L811 1163L810 1162M778 1173L779 1174L778 1173M648 1198L649 1199L648 1198z"/>
</svg>
